{
	"scenes":[{
		"nodes":[0]
	}],
	"asset":{
		"version":"2.0",
		"generator":"Created using the official Cinema 4D glTF Exporter 1.000x284978"
	},
	"nodes":[{
		"translation":[-15.086395263671875,
		98.27506256103516,
		-0.000036835008359048518],
		"name":"Cube.003",
		"rotation":[0.0,
		0.0,
		0.0,
		-1.0],
		"scale":[1.0,
		1.0,
		1.0],
		"mesh":0
	}],
	"meshes":[{
		"name":"Cube.003",
		"primitives":[{
			"attributes":{
				"POSITION":1
			},
			"indices":0,
			"material":0
		}]
	}],
	"accessors":[{
		"bufferView":0,
		"type":"SCALAR",
		"count":3990,
		"componentType":5123,
		"byteOffset":0,
		"min":[0],
		"max":[682]
	},
	{
		"bufferView":1,
		"type":"VEC3",
		"count":683,
		"componentType":5126,
		"byteOffset":0,
		"min":[-321.36041259765627,
		-99.53627014160156,
		-136.1979217529297],
		"max":[258.7114562988281,
		209.5618133544922,
		136.1979522705078]
	}],
	"bufferViews":[{
		"buffer":0,
		"byteOffset":0,
		"target":34963,
		"byteLength":7980
	},
	{
		"buffer":0,
		"byteOffset":7980,
		"target":34962,
		"byteLength":8196
	}],
	"buffers":[{
		"uri":"data:application/octet-stream;base64,",
		"byteLength":16176
	}],
	"materials":[{
		"name":"",
		"pbrMetallicRoughness":{
			"baseColorFactor":[1.0,
			1.0,
			1.0,
			1.0],
			"metallicFactor":1.0,
			"roughnessFactor":1.0
		},
		"emissiveFactor":[0.0,
		0.0,
		0.0],
		"alphaMode":"OPAQUE",
		"doubleSided":false
	}]
}